<svg width="29" height="30" viewBox="0 0 29 30" fill="none" xmlns="http://www.w3.org/2000/svg">
<path d="M28.5687 6.46555C27.5598 6.91264 26.4759 7.21472 25.3365 7.35126C26.5122 6.64776 27.3918 5.54053 27.8111 4.23618C26.7065 4.89229 25.4976 5.35412 24.2369 5.6016C23.3891 4.69639 22.2661 4.09641 21.0424 3.89479C19.8187 3.69318 18.5627 3.90122 17.4693 4.48661C16.3759 5.072 15.5064 6.00199 14.9957 7.1322C14.4851 8.2624 14.3618 9.52958 14.6451 10.737C12.4069 10.6246 10.2173 10.0429 8.2185 9.02952C6.21967 8.01616 4.45626 6.59383 3.0427 4.85485C2.55937 5.68859 2.28145 6.65526 2.28145 7.68476C2.28091 8.61155 2.50914 9.52414 2.94589 10.3416C3.38263 11.159 4.01439 11.856 4.78512 12.3707C3.89128 12.3422 3.01717 12.1007 2.23553 11.6662V11.7387C2.23544 13.0386 2.68507 14.2984 3.50813 15.3045C4.33119 16.3106 5.47697 17.0009 6.75107 17.2584C5.9219 17.4828 5.05257 17.5158 4.20874 17.3551C4.56822 18.4735 5.26844 19.4515 6.21139 20.1523C7.15434 20.853 8.29281 21.2413 9.46741 21.2628C7.47346 22.8281 5.01094 23.6772 2.47599 23.6734C2.02695 23.6735 1.57829 23.6473 1.13232 23.5949C3.70544 25.2493 6.70074 26.1273 9.75982 26.1239C20.1152 26.1239 25.7763 17.5472 25.7763 10.1087C25.7763 9.86701 25.7702 9.62293 25.7594 9.38126C26.8605 8.58494 27.811 7.59884 28.5663 6.46918L28.5687 6.46555Z" fill="white"/>
</svg>
