<?xml version="1.0" encoding="UTF-8"?> <svg xmlns="http://www.w3.org/2000/svg" xmlns:xlink="http://www.w3.org/1999/xlink" version="1.1" id="Layer_1" x="0px" y="0px" width="100%" viewBox="0 0 1600 260" xml:space="preserve"> <path fill="#FEFEFE" opacity="1.000000" stroke="none" d=" M281.000000,1.000000 C380.358246,1.000000 479.716461,1.000000 579.470886,1.251721 C579.917297,1.669585 579.967468,1.835729 579.925171,2.462739 C579.832703,18.303288 579.832703,33.682972 579.832703,49.008629 C600.318298,49.008629 620.035217,49.008629 640.021851,49.008629 C640.021851,33.146408 640.021851,17.571989 640.094910,1.746459 C640.112000,1.330231 640.055969,1.165115 640.000000,1.000000 C871.691589,1.000000 1103.383179,1.000000 1335.399170,1.451518 C1335.629883,24.329370 1335.536011,46.755703 1335.042969,69.183762 C1304.133911,69.672646 1285.210938,86.371574 1272.911865,112.984268 C1272.911865,99.649864 1272.911865,86.315468 1272.911865,73.082123 C1253.074585,73.082123 1233.698242,73.082123 1213.745117,73.082123 C1213.745117,93.320152 1213.745117,113.119392 1213.535645,132.650940 C1209.493652,121.616829 1204.145996,111.692780 1196.655273,103.021515 C1177.732300,81.116096 1153.294556,70.179573 1124.838989,68.579521 C1088.157593,66.516937 1057.044800,78.181618 1034.068237,108.084808 C1033.478027,108.852875 1032.676880,109.458778 1031.690918,109.950996 C1034.857178,97.552231 1038.306519,85.342789 1041.875366,72.709999 C1019.852112,72.709999 998.761108,72.709999 977.292297,72.709999 C968.680481,113.813629 960.105774,154.740311 951.330078,196.626129 C950.626404,192.424408 950.253174,189.120804 949.506836,185.903778 C941.004944,149.257202 932.411682,112.631775 923.967712,75.971939 C923.288879,73.024910 921.893738,72.374802 919.146301,72.394684 C904.319641,72.501999 889.489563,72.583168 874.665771,72.349770 C870.840393,72.289528 869.615845,73.675346 868.838318,77.205643 C865.544678,92.160095 861.904785,107.037979 858.436768,121.954384 C852.558594,147.236710 846.714722,172.526993 840.966370,197.339325 C840.497681,193.850555 840.187073,189.587677 839.326233,185.438965 C832.291382,151.536835 825.134827,117.659981 818.058594,83.766396 C815.697266,72.456360 815.754761,72.404068 804.200684,72.453651 C786.388245,72.530090 768.576050,72.668076 750.414856,72.661896 C725.244446,75.454582 710.718750,91.395157 699.654419,113.661018 C699.654419,99.063736 699.654419,86.002594 699.654419,72.405243 C695.873901,72.405243 692.415833,72.382103 688.958191,72.409203 C672.843750,72.535507 656.729553,72.675697 640.202026,72.670929 C619.672485,72.530937 599.556213,72.530937 579.009521,72.530937 C579.009521,74.879524 579.009521,76.680824 579.009521,78.482132 C579.010010,95.312614 579.036987,112.143196 578.970276,128.973404 C578.963501,130.685089 578.392944,132.394547 577.959351,133.733459 C577.508179,132.073425 577.198059,130.780594 576.852966,129.497162 C569.539978,102.299561 553.600098,82.709091 526.577515,73.218246 C511.888947,68.059349 496.653961,67.049072 481.272003,69.035278 C446.368591,73.542183 420.933044,91.051262 406.697174,123.780807 C405.916870,125.574829 404.880737,127.257553 403.608643,128.790070 C402.828827,125.291649 402.468994,121.985374 401.968994,118.700432 C398.015991,92.729362 382.814545,75.896202 358.101837,70.401054 C353.251160,69.322449 348.249542,68.616982 343.288086,68.393883 C318.378021,67.273811 296.943176,74.227859 281.892883,95.531998 C281.778137,95.694397 281.337830,95.626816 281.000000,95.673462 C281.000000,64.110268 281.000000,32.555134 281.000000,1.000000 z"></path> <path fill="#FFFEFE" opacity="1.000000" stroke="none" d=" M485.000000,261.000000 C323.768219,261.000000 162.536469,261.000000 1.000000,261.000000 C1.000000,192.644958 1.000000,124.289459 1.461590,55.378448 C27.473240,54.822933 53.023300,54.822933 79.011620,54.822933 C79.011620,122.556770 79.011620,189.432709 79.011620,256.417480 C99.999695,256.417480 120.538025,256.417480 141.735870,256.417480 C141.735870,189.083939 141.735870,122.093163 141.735870,54.818951 C167.861679,54.818951 193.326462,54.818951 218.877380,55.292053 C218.963531,122.644203 218.963531,189.523254 218.963531,256.486145 C240.008942,256.486145 260.255951,256.486145 281.022644,256.486145 C281.022644,254.427307 281.022644,252.641693 281.022644,250.856079 C281.022705,225.369690 280.973816,199.883118 281.067535,174.397079 C281.084625,169.750122 281.415527,165.067719 282.061157,160.466156 C284.597809,142.386383 295.614166,129.333038 311.254059,125.571198 C331.085724,120.801125 341.182800,128.639389 341.280060,148.881531 C341.286469,150.214127 341.281677,151.546768 341.281677,152.879395 C341.281677,185.528625 341.281616,218.177856 341.281616,250.827087 C341.281586,252.610489 341.281616,254.393875 341.281616,256.402161 C362.218781,256.402161 382.577759,256.402161 403.237213,256.402161 C403.237213,236.070953 403.237213,216.100510 403.489014,196.346542 C404.156433,197.268433 404.679688,197.932053 404.972260,198.685287 C418.322388,233.056107 443.615967,252.692490 479.554138,259.264069 C481.413086,259.604004 483.186676,260.410645 485.000000,261.000000 z"></path> <path fill="#E94E19" opacity="1.000000" stroke="none" d=" M1500.000000,261.000031 C1492.645752,261.000000 1485.291504,261.000000 1477.292725,260.663269 C1468.657104,257.925842 1460.666138,255.525116 1452.393066,252.871826 C1444.337891,246.435898 1435.558594,241.142624 1429.076660,233.816788 C1422.700195,226.610321 1418.654175,217.341888 1413.582520,208.565796 C1405.321655,184.786987 1403.667725,160.888809 1409.129272,136.787811 C1416.417847,104.624245 1434.028564,80.575287 1466.942383,71.558273 C1491.811401,64.745171 1516.361572,66.552330 1539.000000,81.993759 C1539.000000,54.816376 1539.000000,27.908188 1539.000000,1.000000 C1559.638184,1.000000 1580.276489,1.000000 1601.000000,1.000000 C1601.000000,86.020874 1601.000000,171.041779 1600.540649,256.429443 C1581.187622,256.796204 1562.294067,256.796204 1542.834717,256.796204 C1542.834717,249.246094 1542.834717,242.278687 1542.834717,234.270309 C1531.798584,249.061340 1517.999878,257.210236 1501.026489,260.090149 C1500.643921,260.155060 1500.340454,260.686310 1500.000000,261.000031 M1508.849365,209.538300 C1522.296631,207.729996 1531.600098,200.308075 1536.496704,187.896652 C1542.407349,172.914398 1542.661255,157.586487 1536.455566,142.606552 C1530.719360,128.760010 1520.377686,120.622299 1504.981323,120.589798 C1489.703613,120.557533 1479.002441,128.317001 1473.019409,142.047440 C1466.604248,156.769638 1466.943604,171.956802 1472.576416,186.835709 C1478.554688,202.626678 1491.068115,210.422607 1508.849365,209.538300 z"></path> <path fill="#E94E19" opacity="1.000000" stroke="none" d=" M403.237213,196.130081 C403.237213,216.100510 403.237213,236.070953 403.237213,256.402161 C382.577759,256.402161 362.218781,256.402161 341.281616,256.402161 C341.281616,254.393875 341.281586,252.610489 341.281616,250.827087 C341.281616,218.177856 341.281677,185.528625 341.281677,152.879395 C341.281677,151.546768 341.286469,150.214127 341.280060,148.881531 C341.182800,128.639389 331.085724,120.801125 311.254059,125.571198 C295.614166,129.333038 284.597809,142.386383 282.061157,160.466156 C281.415527,165.067719 281.084625,169.750122 281.067535,174.397079 C280.973816,199.883118 281.022705,225.369690 281.022644,250.856079 C281.022644,252.641693 281.022644,254.427307 281.022644,256.486145 C260.255951,256.486145 240.008942,256.486145 218.963531,256.486145 C218.963531,189.523254 218.963531,122.644203 218.950897,54.843315 C218.896774,36.613201 218.855301,19.304934 218.896637,1.754272 C218.986313,1.341253 218.993164,1.170627 219.000000,1.000000 C239.354233,1.000000 259.708466,1.000000 280.531342,1.000000 C281.000000,32.555134 281.000000,64.110268 281.000000,95.673462 C281.337830,95.626816 281.778137,95.694397 281.892883,95.531998 C296.943176,74.227859 318.378021,67.273811 343.288086,68.393883 C348.249542,68.616982 353.251160,69.322449 358.101837,70.401054 C382.814545,75.896202 398.015991,92.729362 401.968994,118.700432 C402.468994,121.985374 402.828827,125.291649 403.609924,129.191681 C402.309753,141.413925 399.526245,153.013672 399.331543,164.656693 C399.156555,175.123123 401.823730,185.637085 403.237213,196.130081 z"></path> <path fill="#D60752" opacity="1.000000" stroke="none" d=" M1031.973999,110.140305 C1032.676880,109.458778 1033.478027,108.852875 1034.068237,108.084808 C1057.044800,78.181618 1088.157593,66.516937 1124.838989,68.579521 C1153.294556,70.179573 1177.732300,81.116096 1196.655273,103.021515 C1204.145996,111.692780 1209.493652,121.616829 1213.583496,133.061035 C1214.554932,136.471832 1215.344971,139.187668 1215.971436,141.940704 C1220.203003,160.535950 1219.005615,178.920883 1213.540405,197.400955 C1200.933105,230.771042 1176.696411,250.088928 1142.830322,258.189331 C1138.888428,259.132202 1134.943481,260.063385 1131.000000,261.000000 C1121.979126,261.000000 1112.958130,261.000000 1103.286865,260.648193 C1100.350830,259.865601 1098.057617,259.471588 1095.780762,258.998444 C1060.109497,251.586105 1033.930542,232.390610 1021.647827,197.280624 C1018.241943,187.544998 1017.786499,176.777222 1016.018616,166.073975 C1016.095337,145.646500 1021.799500,127.252769 1031.973999,110.140305 M1143.348755,199.880661 C1159.307495,184.630524 1162.664307,158.581253 1151.163452,139.237091 C1135.680420,113.195061 1098.755493,113.326805 1083.446899,139.503098 C1077.958862,148.886993 1076.159058,159.152130 1077.143188,169.826782 C1078.635376,186.010834 1085.592896,199.074158 1100.991211,205.818604 C1115.749756,212.282791 1129.933838,210.355286 1143.348755,199.880661 z"></path> <path fill="#F39202" opacity="1.000000" stroke="none" d=" M403.489014,196.346542 C401.823730,185.637085 399.156555,175.123123 399.331543,164.656693 C399.526245,153.013672 402.309753,141.413925 403.964966,129.393707 C404.880737,127.257553 405.916870,125.574829 406.697174,123.780807 C420.933044,91.051262 446.368591,73.542183 481.272003,69.035278 C496.653961,67.049072 511.888947,68.059349 526.577515,73.218246 C553.600098,82.709091 569.539978,102.299561 576.852966,129.497162 C577.198059,130.780594 577.508179,132.073425 577.927551,134.149719 C580.934082,148.745544 580.388794,162.617508 578.340698,176.581116 C539.649841,176.653244 501.407623,176.653244 462.537323,176.653244 C463.115234,178.923569 463.400177,180.526779 463.929108,182.044983 C468.348938,194.730957 477.111938,203.030457 489.834625,207.032852 C503.454681,211.317566 516.952515,209.733368 529.898804,204.569138 C538.932678,200.965576 547.487732,196.161636 556.501160,191.774902 C563.774536,205.189041 571.282532,219.035828 578.845337,233.193207 C578.866394,233.922043 578.832581,234.340286 578.490845,234.900375 C562.487488,247.108810 544.787109,254.681778 525.447754,258.591949 C521.625793,259.364746 517.815613,260.195831 514.000000,261.000000 C504.645782,261.000000 495.291534,261.000000 485.468658,261.000000 C483.186676,260.410645 481.413086,259.604004 479.554138,259.264069 C443.615967,252.692490 418.322388,233.056107 404.972260,198.685287 C404.679688,197.932053 404.156433,197.268433 403.489014,196.346542 M507.464233,141.079987 C510.857544,141.079987 514.250854,141.079987 517.655701,141.079987 C517.043457,125.611099 507.297424,115.121719 494.071045,114.872330 C478.704773,114.582588 465.785370,125.913200 464.548157,141.080032 C478.540100,141.080032 492.506714,141.080032 507.464233,141.079987 z"></path> <path fill="#39AB35" opacity="1.000000" stroke="none" d=" M218.813828,1.996665 C218.855301,19.304934 218.896774,36.613201 218.864746,54.370209 C193.326462,54.818951 167.861679,54.818951 141.735870,54.818951 C141.735870,122.093163 141.735870,189.083939 141.735870,256.417480 C120.538025,256.417480 99.999695,256.417480 79.011620,256.417480 C79.011620,189.432709 79.011620,122.556770 79.011620,54.822933 C53.023300,54.822933 27.473240,54.822933 1.461590,54.911469 C1.000000,54.555553 1.000000,54.111111 1.294319,53.037529 C1.720940,37.438244 2.024333,22.466433 1.879020,7.498976 C1.836624,3.132018 2.971976,1.876363 7.435322,1.885612 C77.894600,2.031608 148.354263,1.992965 218.813828,1.996665 z"></path> <path fill="#FEFEFE" opacity="1.000000" stroke="none" d=" M514.468628,261.000000 C517.815613,260.195831 521.625793,259.364746 525.447754,258.591949 C544.787109,254.681778 562.487488,247.108810 578.572510,235.381470 C578.962219,242.626221 578.962219,249.531723 578.962219,256.529358 C600.063599,256.529358 620.332092,256.529358 641.085327,256.625122 C661.681458,256.720856 681.793030,256.720856 702.617859,256.720856 C702.617859,254.371689 702.609924,252.427261 702.619141,250.482880 C702.735718,225.839005 702.204773,201.170120 703.151367,176.558090 C704.149292,150.612289 719.481689,133.958206 744.523376,130.519272 C751.677612,129.536804 759.110107,130.580917 766.615662,131.006897 C767.239136,132.754913 767.677856,134.187347 768.082458,135.629349 C779.009033,174.568085 789.980408,213.494446 800.770569,252.470978 C801.703979,255.842468 803.053345,256.978607 806.539673,256.848022 C814.025146,256.567535 821.528442,256.761993 829.024414,256.761993 C843.165161,256.762024 857.305969,256.761993 871.944702,256.761993 C880.317932,222.060043 888.635315,187.589600 896.535095,154.849823 C904.431763,187.580643 912.738220,222.009964 920.975159,256.151031 C921.793762,256.450439 922.104187,256.662933 922.414978,256.663574 C944.068787,256.706573 965.723083,256.791504 987.375183,256.614380 C988.679077,256.603729 990.715637,254.720093 991.140747,253.321732 C994.286804,242.973831 997.077393,232.518463 1000.042969,222.114929 C1005.330933,203.564255 1010.663452,185.026260 1015.977356,166.482986 C1017.786499,176.777222 1018.241943,187.544998 1021.647827,197.280624 C1033.930542,232.390610 1060.109497,251.586105 1095.780762,258.998444 C1098.057617,259.471588 1100.350830,259.865601 1102.818237,260.648193 C906.979126,261.000000 710.958191,261.000000 514.468628,261.000000 z"></path> <path fill="#39AA35" opacity="1.000000" stroke="none" d=" M1413.585449,208.978271 C1418.654175,217.341888 1422.700195,226.610321 1429.076660,233.816788 C1435.558594,241.142624 1444.337891,246.435898 1452.077515,253.125458 C1446.800049,255.184402 1441.576416,256.810181 1436.305542,258.265137 C1432.570068,259.296295 1428.770752,260.096649 1425.000000,261.000000 C1416.645752,261.000000 1408.291504,261.000000 1399.282959,260.650330 C1396.180420,259.865845 1393.734619,259.415588 1391.283325,258.998474 C1361.794434,253.980896 1343.259277,236.925674 1337.576904,208.876740 C1336.170898,201.935913 1335.864380,194.698456 1335.742798,187.585556 C1335.416504,168.488464 1335.463745,149.384979 1335.507568,129.817352 C1335.582397,109.294456 1335.512329,89.238243 1335.442261,69.182037 C1335.536011,46.755703 1335.629883,24.329370 1335.861816,1.451518 C1356.354248,1.000000 1376.708496,1.000000 1397.403320,1.453924 C1397.727783,61.735756 1397.683960,121.563690 1397.745361,181.391525 C1397.750732,186.535202 1398.093140,191.736191 1398.910645,196.808716 C1400.360107,205.800369 1404.466553,208.983932 1413.585449,208.978271 z"></path> <path fill="#FFFEFE" opacity="1.000000" stroke="none" d=" M1413.582520,208.565811 C1404.466553,208.983932 1400.360107,205.800369 1398.910645,196.808716 C1398.093140,191.736191 1397.750732,186.535202 1397.745361,181.391525 C1397.683960,121.563690 1397.727783,61.735756 1397.871826,1.453924 C1444.687622,1.000000 1491.375122,1.000000 1538.531372,1.000000 C1539.000000,27.908188 1539.000000,54.816376 1539.000000,81.993759 C1516.361572,66.552330 1491.811401,64.745171 1466.942383,71.558273 C1434.028564,80.575287 1416.417847,104.624245 1409.129272,136.787811 C1403.667725,160.888809 1405.321655,184.786987 1413.582520,208.565811 z"></path> <path fill="#FDFEFE" opacity="1.000000" stroke="none" d=" M1335.362671,130.284042 C1335.463745,149.384979 1335.416504,168.488464 1335.742798,187.585556 C1335.864380,194.698456 1336.170898,201.935913 1337.576904,208.876740 C1343.259277,236.925674 1361.794434,253.980896 1391.283325,258.998474 C1393.734619,259.415588 1396.180420,259.865845 1398.814453,260.650330 C1309.979126,261.000000 1220.958130,261.000000 1131.468628,261.000000 C1134.943481,260.063385 1138.888428,259.132202 1142.830322,258.189331 C1176.696411,250.088928 1200.933105,230.771042 1213.587891,197.851990 C1213.845703,217.458145 1213.845703,236.875580 1213.845703,256.372711 C1234.981201,256.372711 1255.335083,256.372711 1275.978149,256.372711 C1275.978149,254.134308 1275.976196,252.312973 1275.978394,250.491638 C1276.005737,227.512405 1275.714722,204.526932 1276.165771,181.556015 C1276.505249,164.264893 1281.265503,148.540131 1296.543701,138.159149 C1308.309326,130.164917 1321.623169,128.975174 1335.362671,130.284042 z"></path> <path fill="#FFFCFB" opacity="1.000000" stroke="none" d=" M1500.468628,261.000031 C1500.340454,260.686310 1500.643921,260.155060 1501.026489,260.090149 C1517.999878,257.210236 1531.798584,249.061340 1542.834717,234.270309 C1542.834717,242.278687 1542.834717,249.246094 1542.834717,256.796204 C1562.294067,256.796204 1581.187622,256.796204 1600.540649,256.898102 C1601.000000,258.327759 1601.000000,259.655518 1601.000000,261.000000 C1567.645752,261.000000 1534.291504,261.000000 1500.468628,261.000031 z"></path> <path fill="#50B44C" opacity="1.000000" stroke="none" d=" M218.896637,1.754272 C148.354263,1.992965 77.894600,2.031608 7.435322,1.885612 C2.971976,1.876363 1.836624,3.132018 1.879020,7.498976 C2.024333,22.466433 1.720940,37.438244 1.294319,52.704201 C1.000000,35.694790 1.000000,18.389580 1.000000,1.000000 C73.354210,1.000000 145.708450,1.000000 218.531342,1.000000 C218.993164,1.170627 218.986313,1.341253 218.896637,1.754272 z"></path> <path fill="#FAF9F5" opacity="1.000000" stroke="none" d=" M1425.468628,261.000000 C1428.770752,260.096649 1432.570068,259.296295 1436.305542,258.265137 C1441.576416,256.810181 1446.800049,255.184402 1452.359497,253.378021 C1460.666138,255.525116 1468.657104,257.925842 1476.824097,260.663269 C1459.979126,261.000000 1442.958130,261.000000 1425.468628,261.000000 z"></path> <path fill="#2A7ABD" opacity="1.000000" stroke="none" d=" M580.017700,2.001873 C579.967468,1.835729 579.917297,1.669585 579.933533,1.251721 C599.687561,1.000000 619.375122,1.000000 639.531372,1.000000 C640.055969,1.165115 640.112000,1.330231 639.624695,1.747440 C619.393494,2.000314 599.705627,2.001094 580.017700,2.001873 z"></path> <path fill="#02A29B" opacity="1.000000" stroke="none" d=" M1016.018616,166.073975 C1010.663452,185.026260 1005.330933,203.564255 1000.042969,222.114929 C997.077393,232.518463 994.286804,242.973831 991.140747,253.321732 C990.715637,254.720093 988.679077,256.603729 987.375183,256.614380 C965.723083,256.791504 944.068787,256.706573 922.414978,256.663574 C922.104187,256.662933 921.793762,256.450439 920.975159,256.151031 C912.738220,222.009964 904.431763,187.580643 896.535095,154.849823 C888.635315,187.589600 880.317932,222.060043 871.944702,256.761993 C857.305969,256.761993 843.165161,256.762024 829.024414,256.761993 C821.528442,256.761993 814.025146,256.567535 806.539673,256.848022 C803.053345,256.978607 801.703979,255.842468 800.770569,252.470978 C789.980408,213.494446 779.009033,174.568085 768.082458,135.629349 C767.677856,134.187347 767.239136,132.754913 766.556641,130.609955 C765.829346,127.968689 765.412354,126.021622 764.886230,124.104523 C760.189697,106.993324 755.473938,89.887413 750.763794,72.779938 C768.576050,72.668076 786.388245,72.530090 804.200684,72.453651 C815.754761,72.404068 815.697266,72.456360 818.058594,83.766396 C825.134827,117.659981 832.291382,151.536835 839.326233,185.438965 C840.187073,189.587677 840.497681,193.850555 840.966370,197.339325 C846.714722,172.526993 852.558594,147.236710 858.436768,121.954384 C861.904785,107.037979 865.544678,92.160095 868.838318,77.205643 C869.615845,73.675346 870.840393,72.289528 874.665771,72.349770 C889.489563,72.583168 904.319641,72.501999 919.146301,72.394684 C921.893738,72.374802 923.288879,73.024910 923.967712,75.971939 C932.411682,112.631775 941.004944,149.257202 949.506836,185.903778 C950.253174,189.120804 950.626404,192.424408 951.330078,196.626129 C960.105774,154.740311 968.680481,113.813629 977.292297,72.709999 C998.761108,72.709999 1019.852112,72.709999 1041.875366,72.709999 C1038.306519,85.342789 1034.857178,97.552231 1031.690918,109.950981 C1021.799500,127.252769 1016.095337,145.646500 1016.018616,166.073975 z"></path> <path fill="#36A9E1" opacity="1.000000" stroke="none" d=" M1335.507568,129.817352 C1321.623169,128.975174 1308.309326,130.164917 1296.543701,138.159149 C1281.265503,148.540131 1276.505249,164.264893 1276.165771,181.556015 C1275.714722,204.526932 1276.005737,227.512405 1275.978394,250.491638 C1275.976196,252.312973 1275.978149,254.134308 1275.978149,256.372711 C1255.335083,256.372711 1234.981201,256.372711 1213.845703,256.372711 C1213.845703,236.875580 1213.845703,217.458145 1213.798218,197.589691 C1219.005615,178.920883 1220.203003,160.535950 1215.971436,141.940704 C1215.344971,139.187668 1214.554932,136.471832 1213.792847,133.328705 C1213.745117,113.119392 1213.745117,93.320152 1213.745117,73.082123 C1233.698242,73.082123 1253.074585,73.082123 1272.911865,73.082123 C1272.911865,86.315468 1272.911865,99.649864 1272.911865,112.984268 C1285.210938,86.371574 1304.133911,69.672646 1335.042969,69.183762 C1335.512329,89.238243 1335.582397,109.294456 1335.507568,129.817352 z"></path> <path fill="#95C11E" opacity="1.000000" stroke="none" d=" M750.414856,72.661896 C755.473938,89.887413 760.189697,106.993324 764.886230,124.104523 C765.412354,126.021622 765.829346,127.968689 766.355957,130.298798 C759.110107,130.580917 751.677612,129.536804 744.523376,130.519272 C719.481689,133.958206 704.149292,150.612289 703.151367,176.558090 C702.204773,201.170120 702.735718,225.839005 702.619141,250.482880 C702.609924,252.427261 702.617859,254.371689 702.617859,256.720856 C681.793030,256.720856 661.681458,256.720856 641.110291,256.188690 C640.638855,194.708008 640.627014,133.759460 640.615234,72.810921 C656.729553,72.675697 672.843750,72.535507 688.958191,72.409203 C692.415833,72.382103 695.873901,72.405243 699.654419,72.405243 C699.654419,86.002594 699.654419,99.063736 699.654419,113.661018 C710.718750,91.395157 725.244446,75.454582 750.414856,72.661896 z"></path> <path fill="#1C72B7" opacity="1.000000" stroke="none" d=" M640.202026,72.670929 C640.627014,133.759460 640.638855,194.708008 640.625610,256.092957 C620.332092,256.529358 600.063599,256.529358 578.962219,256.529358 C578.962219,249.531723 578.962219,242.626221 578.880493,235.239624 C578.832581,234.340286 578.866394,233.922043 578.917542,232.738403 C578.886353,213.484970 578.837830,194.996979 578.789368,176.508972 C580.388794,162.617508 580.934082,148.745544 578.052246,134.521301 C578.392944,132.394547 578.963501,130.685089 578.970276,128.973404 C579.036987,112.143196 579.010010,95.312614 579.009521,78.482132 C579.009521,76.680824 579.009521,74.879524 579.009521,72.530937 C599.556213,72.530937 619.672485,72.530937 640.202026,72.670929 z"></path> <path fill="#1A70B8" opacity="1.000000" stroke="none" d=" M579.925171,2.462739 C599.705627,2.001094 619.393494,2.000314 639.551636,1.998554 C640.021851,17.571989 640.021851,33.146408 640.021851,49.008629 C620.035217,49.008629 600.318298,49.008629 579.832703,49.008629 C579.832703,33.682972 579.832703,18.303288 579.925171,2.462739 z"></path> <path fill="#FFFEFD" opacity="1.000000" stroke="none" d=" M1508.419434,209.603973 C1491.068115,210.422607 1478.554688,202.626678 1472.576416,186.835709 C1466.943604,171.956802 1466.604248,156.769638 1473.019409,142.047440 C1479.002441,128.317001 1489.703613,120.557533 1504.981323,120.589798 C1520.377686,120.622299 1530.719360,128.760010 1536.455566,142.606552 C1542.661255,157.586487 1542.407349,172.914398 1536.496704,187.896652 C1531.600098,200.308075 1522.296631,207.729996 1508.419434,209.603973 z"></path> <path fill="#FFFDFE" opacity="1.000000" stroke="none" d=" M1143.071533,200.107834 C1129.933838,210.355286 1115.749756,212.282791 1100.991211,205.818604 C1085.592896,199.074158 1078.635376,186.010834 1077.143188,169.826782 C1076.159058,159.152130 1077.958862,148.886993 1083.446899,139.503098 C1098.755493,113.326805 1135.680420,113.195061 1151.163452,139.237091 C1162.664307,158.581253 1159.307495,184.630524 1143.071533,200.107834 z"></path> <path fill="#FEFEFD" opacity="1.000000" stroke="none" d=" M578.340698,176.581116 C578.837830,194.996979 578.886353,213.484970 578.862671,232.427795 C571.282532,219.035828 563.774536,205.189041 556.501160,191.774902 C547.487732,196.161636 538.932678,200.965576 529.898804,204.569138 C516.952515,209.733368 503.454681,211.317566 489.834625,207.032852 C477.111938,203.030457 468.348938,194.730957 463.929108,182.044983 C463.400177,180.526779 463.115234,178.923569 462.537323,176.653244 C501.407623,176.653244 539.649841,176.653244 578.340698,176.581116 z"></path> <path fill="#FFFDFB" opacity="1.000000" stroke="none" d=" M506.968811,141.080017 C492.506714,141.080032 478.540100,141.080032 464.548157,141.080032 C465.785370,125.913200 478.704773,114.582588 494.071045,114.872330 C507.297424,115.121719 517.043457,125.611099 517.655701,141.079987 C514.250854,141.079987 510.857544,141.079987 506.968811,141.080017 z"></path> </svg> 